<?xml version="1.0" encoding="UTF-8"?> <!-- Generator: Adobe Illustrator 25.0.0, SVG Export Plug-In . SVG Version: 6.00 Build 0) --> <svg xmlns="http://www.w3.org/2000/svg" xmlns:xlink="http://www.w3.org/1999/xlink" id="Layer_1" x="0px" y="0px" viewBox="0 0 100.4 100.4" style="enable-background:new 0 0 100.4 100.4;" xml:space="preserve"> <style type="text/css"> .st0{fill:#FFFFFF;} </style> <g> <path class="st0" d="M73.8,44.2c0-12.8-10.5-23.3-23.4-23.3S26.9,31.3,26.9,44.2c0,12.8,10.5,23.3,23.4,23.3S73.8,57,73.8,44.2z M70.1,44.2c0,10.9-8.9,19.7-19.8,19.7c-10.9,0-19.8-8.9-19.8-19.7c0-10.8,8.9-19.6,19.8-19.6C61.3,24.5,70.1,33.3,70.1,44.2z"></path> <path class="st0" d="M86.7,44.8c-0.3-0.4-0.9-0.6-1.4-0.6h-2.5c-0.8-17.3-15-30.8-32.6-30.8c-17.5,0-31.7,13.5-32.6,30.8h-2.6 c-1,0-1.8,0.8-1.8,1.8v12.9c0,1,0.8,1.8,1.8,1.8h8.7c1,0,1.8-0.8,1.8-1.8V45.9c0-1-0.8-1.8-1.8-1.8h-2.4C22.3,28.9,34.9,17,50.4,17 s28.1,11.9,28.9,27.2h-2.6c-1,0-1.8,0.8-1.8,1.8v12.9c0,1,0.8,1.8,1.8,1.8h2.7c-0.8,10.1-8.8,17.9-19,18.6v-2.7 c0-1-0.8-1.8-1.8-1.8H45.5c-1,0-1.8,0.8-1.8,1.8v8.8c0,1,0.8,1.8,1.8,1.8h13c1,0,1.8-0.8,1.8-1.8V83c12-0.7,21.8-10.3,22.6-22.2 h2.4c1,0,1.8-0.8,1.8-1.8l0-13C87.1,45.6,87,45.1,86.7,44.8z M83.5,47.7V57h-5.1v-9.3H83.5z M17,57v-9.3h5.1V57H17z M56.8,78.4v5 h-9.4v-5H56.8z"></path> </g> </svg> 