<?xml version="1.0" encoding="UTF-8"?> <!-- Generator: Adobe Illustrator 25.0.0, SVG Export Plug-In . SVG Version: 6.00 Build 0) --> <svg xmlns="http://www.w3.org/2000/svg" xmlns:xlink="http://www.w3.org/1999/xlink" id="Layer_1" x="0px" y="0px" viewBox="0 0 403.9 105" style="enable-background:new 0 0 403.9 105;" xml:space="preserve"> <style type="text/css"> .st0{fill:#FFFFFF;} .st1{fill:url(#SVGID_1_);} .st2{fill:url(#SVGID_2_);} .st3{fill:url(#SVGID_3_);} .st4{fill:none;} </style> <g> <g> <g> <path class="st0" d="M75.3,77.2c-1.9,0.9-3.8,1.6-5.5,2.1v-0.6c0,0,0-2.3,0-5.7V40.6c0.5,0,3,0,3,0v-37l-1.9,0 c-0.4,0-9.7-0.1-16.5,7.4c-4.5,4.9-6.8,11.9-6.8,20.8c0,1.5,0.1,3,0.2,4.6h-1.4c0.1-1.6,0.2-3.1,0.2-4.6c0-8.9-2.3-15.9-6.8-20.8 C33,3.5,23.6,3.6,23.2,3.6l-1.9,0v37c0,0,2.5,0,3,0v13.3c-0.8,0-0.9,0.1-1,0.1c-0.4,0.2-1.2,1.2-2,2.3c-7-1.3-12.6-1.4-16.7-0.1 l-0.9,0.3v0.9c0,0.9,0.4,1.5,0.6,1.8c0.1,0.1,0.1,0.2,0.1,0.2C8,66.1,14.8,75.7,16.3,77.7c0-0.1,0-0.1,0-0.2 c0.4,1.8,1.1,4.7,2.3,9.1l6.1,7.2c6.7,1.6,8.8,5.1,10.9,6.1c6-4.4,10.3-8,18-6.8c6.6,0.7,13.4,0,21.3-8.9 C75.5,82.1,75.3,77.2,75.3,77.2z"></path> <g> <linearGradient id="SVGID_1_" gradientUnits="userSpaceOnUse" x1="29.1815" y1="58.8869" x2="78.5992" y2="9.4692"> <stop offset="0.2697" style="stop-color:#90281B"></stop> <stop offset="0.2892" style="stop-color:#99291B"></stop> <stop offset="0.37" style="stop-color:#B7291E"></stop> <stop offset="0.4492" style="stop-color:#CE261F"></stop> <stop offset="0.5255" style="stop-color:#DC241F"></stop> <stop offset="0.5955" style="stop-color:#E1221F"></stop> </linearGradient> <path class="st1" d="M54.4,11c-4.5,4.9-6.8,11.9-6.8,20.8c0,1.5,0.1,3,0.2,4.6c-0.7,0-0.7,0-1.4,0c0.1-1.6,0.2-3.1,0.2-4.6 c0-8.9-2.3-15.9-6.8-20.8C33,3.5,23.6,3.6,23.2,3.6l-1.9,0v37c0,0,2.5,0,3,0c0,2.9,0,13.5,0,13.5h3.8V36.8c0,0-2.5,0-3.1,0 c0-3.2,0-25.9,0-29.3c2.7,0.4,7.9,1.6,11.8,6c3.8,4.2,5.8,10.3,5.8,18.2c0,2-0.1,4.1-0.4,6.3l-0.2,2.1H52L51.8,38 c-0.2-2.2-0.4-4.3-0.4-6.3c0-7.9,1.9-14,5.8-18.2c4-4.4,9.1-5.6,11.8-6c0,3.4,0,26.1,0,29.3c-0.5,0-3,0-3,0v44.5h3.8 c0,0,0-37.3,0-40.7c0.5,0,3,0,3,0v-37l-1.9,0C70.5,3.6,61.2,3.5,54.4,11z"></path> <linearGradient id="SVGID_2_" gradientUnits="userSpaceOnUse" x1="-621.1683" y1="772.8237" x2="-581.4706" y2="749.9043" gradientTransform="matrix(1 0 0 1 636.6172 -694.4492)"> <stop offset="0" style="stop-color:#D9D9D9"></stop> <stop offset="0.3034" style="stop-color:#4D4D4D"></stop> <stop offset="0.6011" style="stop-color:#D9D9D9"></stop> <stop offset="1" style="stop-color:#808080"></stop> </linearGradient> <path class="st2" d="M48.4,71.5L48,72.7l3.1,1c3.9,1.3,6.2,2,10.9,4.8l0.6-1.1c-4.8-2.8-7.3-3.6-11.1-4.9L48.4,71.5z M36.3,65.4 c-1.4-0.3-2.6-0.6-3.4-0.8l-0.3,1.2c0.9,0.3,2.1,0.5,3.5,0.8c3.6,0.8,8.6,1.9,11.8,3.6l0.6-1.1C45.1,67.3,40,66.2,36.3,65.4z M40.5,70.6c2.3,0.3,5.3,1.1,6.1,1.4l0.3-0.9C46,70.9,43,70,40.6,69.7L40.5,70.6z M65.7,73.7l-11.4-8.6l0.2-0.9 c0,0,5,3.8,5.3,4.1c0.3,0.3,1-0.7,0.9-0.8c-0.2-0.2-7.9-6.8-7.9-6.8c-0.3-1.3-4.4-6-6.3-6.7v0c0,0-4.5-0.1-9.4-0.1l0.5,0 c-0.2-2-0.1-5.7,0-8.2l0-2.2h-1.3l0,2.1c-0.1,2.5-0.1,6.1,0,8.2c-0.3,0-0.7,0-1,0c-11.4-0.1-11.6,0-11.8,0.1 c-0.4,0.2-1.2,1.2-2,2.3c-7-1.3-12.6-1.4-16.7-0.1l-0.9,0.3v0.9c0,0.9,0.4,1.5,0.6,1.8c0.1,0.1,0.1,0.2,0.1,0.2 C8,66.1,14.8,75.7,16.3,77.7c-0.4-1.6,1.5-0.9,1.5-0.9c0.4-0.3-1.1-2-0.7-2.3c-1.5-2.1-3.9-5.6-6.1-9.1 c7.8,0.3,12.9,2.1,15.8,3.6c1,0.5,1.8,1,2.5,1.5c0.7,0,1.4,0,2.1,0c-0.8-0.7-2.1-1.7-3.9-2.6c-3.2-1.7-8.8-3.7-17.3-3.9 c-1.2-2-2.4-3.9-3.2-5.7c0,0,0,0,0,0C21.2,55.2,49.7,68.4,50,68.5l1.1-2.3c0,0-1.9-0.9-4.8-2.1v-3.1c2.2,0.8,7.7,5.2,7.7,5.2 c0,1.1-1.4,1.9-1.4,1.9c7.1,1.2,12.2,5.8,12.2,5.8s-0.9,1.7-1.3,2.3c-3.2-2-8.2-4.3-11.1-5.6c-0.8-0.4-1.5-0.7-1.8-0.8l-0.6,1.1 c0.4,0.2,1,0.5,1.8,0.9c3.3,1.5,10.2,4.7,12.8,6.9l0.8-1c-0.4-0.3-0.8-0.6-1.3-1L65.7,73.7z M42.7,55.3c1.2,0,2.3,0,3.4,0.1 c0.4,0.3,0.9,0.7,1.5,1.2c0,0-2.1-0.7-5-0.6C42.7,55.8,42.7,55.5,42.7,55.3z M31.3,55.3l0-0.1c3,0,6.5,0.1,9.9,0.1v1.1 c-3.8,0.9-8,0.9-10.1-0.3C31.5,55.8,31.1,55.5,31.3,55.3z M22.8,56.6c0.5-0.7,1-1.2,1.2-1.4c0.6-0.1,3.1-0.1,6.4,0 c-0.1,0.2-0.2,0.4-0.3,0.5c-0.4,0.2-1.2,1.7-1.7,2.3C26.4,57.4,24.6,57,22.8,56.6z M45.1,63.7c-1.4-0.6-2.9-1.2-4.6-1.8 c0-0.5,0-1.2,0.3-1.2c0.3,0,4.5,0.1,4.5,0.1S45.1,62.7,45.1,63.7z M48.4,61c-0.8-0.6-2.1-1.4-2.1-1.4H34.1 c-0.2,0-0.3-0.1-0.5-0.2c-1.4-0.5-2.8-0.9-4.1-1.3c0.1-0.5,0.7-1.5,0.7-1.5c0.3-0.1,2.2,1.2,5.4,1.3c4.1,0,7-1.2,8.7-1.2 c3.6,0.1,7,3,7.8,5C50.7,62.7,49.6,61.9,48.4,61z"></path> <linearGradient id="SVGID_3_" gradientUnits="userSpaceOnUse" x1="22.6093" y1="93.7039" x2="69.2271" y2="66.7891"> <stop offset="5.618000e-03" style="stop-color:#00A2DB"></stop> <stop offset="4.695790e-02" style="stop-color:#00A1DA"></stop> <stop offset="8.689620e-02" style="stop-color:#009BD6"></stop> <stop offset="0.1263" style="stop-color:#0093CF"></stop> <stop offset="0.1651" style="stop-color:#0086C4"></stop> <stop offset="0.1966" style="stop-color:#0078B9"></stop> <stop offset="0.2047" style="stop-color:#0078B9"></stop> <stop offset="0.2865" style="stop-color:#0078B9"></stop> <stop offset="0.2943" style="stop-color:#007BBB"></stop> <stop offset="0.3425" style="stop-color:#008AC8"></stop> <stop offset="0.3932" style="stop-color:#0095D1"></stop> <stop offset="0.4469" style="stop-color:#009CD7"></stop> <stop offset="0.5056" style="stop-color:#00A1DA"></stop> <stop offset="0.5787" style="stop-color:#00A2DB"></stop> <stop offset="0.6779" style="stop-color:#0092CE"></stop> <stop offset="0.8034" style="stop-color:#0078B9"></stop> <stop offset="0.8255" style="stop-color:#0083C3"></stop> <stop offset="0.8537" style="stop-color:#008DCD"></stop> <stop offset="0.8863" style="stop-color:#0094D3"></stop> <stop offset="0.9269" style="stop-color:#0098D7"></stop> <stop offset="1" style="stop-color:#0099D8"></stop> </linearGradient> <path class="st3" d="M53.5,93.1c6.6,0.7,13.4,0,21.3-8.9c0.8-2,0.5-6.9,0.5-6.9c-14,6.4-22.6,2.5-27.9-1.9 c-8.2-4.6-21.2-8.3-31.6,0c0,0,0.6,3.3,2.7,11.1c7.7-6.6,14.2-9.4,25.3-5.3c5.7,2.2,9.8,6.3,27.8,1.5c-9.5,8.9-15.6,7.3-22,5.1 c-7.4-1.5-16.9-2.1-25,6c6.7,1.6,8.8,5.1,10.9,6.1C41.5,95.5,45.8,91.8,53.5,93.1z"></path> </g> </g> <rect x="2.2" y="2" class="st4" width="89.8" height="98.9"></rect> </g> <g> <path class="st0" d="M149.6,49.5h-5.4V27.5L137,41.9h-3.3l-7-14.1v21.7h-5.4v-31h5.1l9.1,17.2l9-17.2h5.1V49.5z"></path> <path class="st0" d="M178,24.7c0.4,1.8,0.6,4.9,0.6,9.3c0,4.5-0.2,7.6-0.6,9.3c-0.4,1.8-1.3,3.2-2.7,4.2c-2,1.5-4.5,2.3-7.7,2.3 s-5.7-0.8-7.7-2.3c-1.4-1.1-2.3-2.5-2.7-4.2c-0.4-1.8-0.6-4.9-0.6-9.3c0-4.5,0.2-7.6,0.6-9.3c0.4-1.8,1.3-3.2,2.7-4.2 c2-1.5,4.5-2.3,7.7-2.3s5.7,0.8,7.7,2.3C176.7,21.5,177.6,22.9,178,24.7z M172.8,42c0.3-1.5,0.4-4.2,0.4-7.9s-0.1-6.4-0.4-7.9 c-0.3-1.5-0.8-2.6-1.5-3.4c-0.8-0.8-2.1-1.2-3.7-1.2c-1.6,0-2.9,0.4-3.7,1.2c-0.8,0.7-1.3,1.8-1.5,3.3c-0.2,1.5-0.3,4.2-0.3,8 c0,3.8,0.1,6.5,0.3,8c0.2,1.5,0.7,2.6,1.5,3.3c0.8,0.8,2.1,1.2,3.7,1.2c1.6,0,2.8-0.4,3.7-1.2C172,44.6,172.5,43.5,172.8,42z"></path> <path class="st0" d="M205.9,41.8c-0.1,2.8-1.2,4.9-3.4,6.3c-1.9,1.1-4.2,1.7-6.9,1.7c-3.2,0-5.8-0.8-7.7-2.3 c-1.4-1.1-2.3-2.6-2.7-4.3s-0.6-4.8-0.6-9.3s0.2-7.6,0.6-9.3s1.3-3.1,2.7-4.3c1.9-1.5,4.5-2.3,7.7-2.3c2.9,0,5.3,0.6,7.1,1.8 c2.1,1.4,3.1,3.4,3.2,6.1h-5.4c-0.1-1.6-0.6-2.8-1.5-3.5c-0.8-0.7-2-1.1-3.5-1.1c-1.6,0-2.9,0.4-3.7,1.2c-0.8,0.7-1.3,1.8-1.5,3.3 c-0.2,1.5-0.3,4.2-0.3,8c0,3.8,0.1,6.5,0.3,8c0.2,1.5,0.7,2.6,1.5,3.3c0.8,0.8,2.1,1.2,3.7,1.2c1.5,0,2.7-0.4,3.5-1.1 c0.9-0.8,1.4-2,1.5-3.6H205.9z"></path> <path class="st0" d="M229.5,21.9H222v27.6h-5.4V21.9H209v-3.3h20.5V21.9z"></path> <path class="st0" d="M257.2,18.5l-11.7,26.1c-0.9,2-2.1,3.3-3.5,3.9c-1.5,0.7-3.8,1-7,1v-3.3c1.9,0,3.2-0.2,4-0.7 c0.8-0.4,1.5-1.3,2.1-2.6l1.5-3.4l-9.6-21h5.9l6.2,15.8l6.1-15.8H257.2z"></path> <path class="st0" d="M282.3,27.6c0,3.2-0.9,5.6-2.7,6.9c-1.8,1.4-4.5,2.1-8,2.1h-4.7v12.9h-5.4v-31h10.1c3.6,0,6.2,0.7,8,2 C281.4,21.9,282.3,24.3,282.3,27.6z M276.8,27.6c0-2.1-0.4-3.5-1.3-4.4s-2.3-1.3-4.1-1.3h-4.5v11.4h4.5c1.9,0,3.2-0.4,4.1-1.3 S276.8,29.6,276.8,27.6z"></path> <path class="st0" d="M315.7,23.4c1.7,2,2.6,5.3,2.6,9.7c0,4.4-0.9,7.6-2.6,9.7c-1.7,2-5.1,3.1-10.1,3.3v3.7h-5.4V46 c-5-0.1-8.4-1.2-10.1-3.3c-1.7-2-2.6-5.3-2.6-9.7c0-4.4,0.9-7.6,2.6-9.7c1.7-2,5.1-3.1,10.1-3.3v-2.8h5.4v2.8 C310.6,20.2,314,21.3,315.7,23.4z M300.3,42.7V23.4c-3,0.1-5,0.9-5.9,2.3c-0.9,1.4-1.4,3.9-1.4,7.4c0,3.5,0.5,6,1.4,7.4 C295.4,41.8,297.3,42.6,300.3,42.7z M311.5,40.5c0.9-1.4,1.4-3.9,1.4-7.4c0-3.5-0.5-6-1.4-7.4c-0.9-1.4-2.9-2.2-5.9-2.3v19.4 C308.5,42.6,310.5,41.8,311.5,40.5z"></path> <path class="st0" d="M345.3,49.5h-5.4V21.9h-8.1v13.7c0,2.5-0.2,4.6-0.6,6.3c-0.4,1.7-0.9,3.1-1.5,4.1c-0.6,1-1.4,1.7-2.3,2.3 c-1,0.5-1.9,0.9-2.8,1c-0.9,0.1-2,0.2-3.3,0.2h-1.6v-3.3h0.6c1,0,1.8-0.1,2.4-0.3c0.6-0.2,1.3-0.6,1.9-1.3 c0.7-0.7,1.2-1.8,1.5-3.4c0.3-1.6,0.5-3.6,0.5-6.2V18.5h18.7V49.5z"></path> <path class="st0" d="M373.6,24.7c0.4,1.8,0.6,4.9,0.6,9.3c0,4.5-0.2,7.6-0.6,9.3c-0.4,1.8-1.3,3.2-2.7,4.2c-2,1.5-4.5,2.3-7.7,2.3 s-5.7-0.8-7.7-2.3c-1.4-1.1-2.3-2.5-2.7-4.2c-0.4-1.8-0.6-4.9-0.6-9.3c0-4.5,0.2-7.6,0.6-9.3c0.4-1.8,1.3-3.2,2.7-4.2 c2-1.5,4.5-2.3,7.7-2.3s5.7,0.8,7.7,2.3C372.3,21.5,373.2,22.9,373.6,24.7z M368.4,42c0.3-1.5,0.4-4.2,0.4-7.9s-0.1-6.4-0.4-7.9 c-0.3-1.5-0.8-2.6-1.5-3.4c-0.8-0.8-2.1-1.2-3.7-1.2c-1.6,0-2.9,0.4-3.7,1.2c-0.8,0.7-1.3,1.8-1.5,3.3c-0.2,1.5-0.3,4.2-0.3,8 c0,3.8,0.1,6.5,0.3,8c0.2,1.5,0.7,2.6,1.5,3.3c0.8,0.8,2.1,1.2,3.7,1.2c1.6,0,2.8-0.4,3.7-1.2C367.7,44.6,368.2,43.5,368.4,42z"></path> <path class="st0" d="M398.4,21.9h-7.5v27.6h-5.4V21.9h-7.6v-3.3h20.5V21.9z"></path> </g> <g> <path class="st0" d="M124.9,67.2v8.7h0.1l6.6-8.7h4.4l-7.6,9.2l8,11.1h-4.7L125,77.4h-0.1v10.1h-3.7V67.2H124.9z"></path> <path class="st0" d="M138.3,93.7V72.4h3.1V75h0.1c1.4-2.7,3.8-2.8,4.4-2.8c3.1,0,5.7,2.2,5.7,7.7c0,5.5-2.9,7.7-5.8,7.7 c-1.9,0-3.1-1-3.9-2.3h-0.1l0.1,2.5v5.8H138.3z M144.8,84.6c1.4,0,3-1.4,3-4.6s-1.6-4.6-3-4.6c-1.4,0-3,1.4-3,4.6 S143.4,84.6,144.8,84.6z"></path> <path class="st0" d="M156,72.4l2.5,8.3l0.8,2.9h0.1l0.8-3l2.4-8.2h3.6l-5.7,16.9c-0.8,2.3-1.7,4.6-5.5,4.6c-0.6,0-1.4-0.2-2.1-0.4 l0.3-2.9c0.4,0.2,0.9,0.3,1.4,0.3c1.2,0,2-0.4,2.4-1.7l0.3-0.9l-5.3-15.9H156z"></path> <path class="st0" d="M171.5,72.4v7.9l-0.1,2.7h0.1l5.8-10.6h3.9v15h-3.5v-7.8l0.1-2.8h-0.1l-5.9,10.6H168v-15H171.5z"></path> <path class="st0" d="M186.6,78.2h1.8c1.7,0,2-0.9,2-1.5c0-0.9-0.6-1.7-2.3-1.7c-0.7,0-2.4,0.2-3.9,1l-0.1-2.9c1.5-0.6,2.8-1,4.5-1 c4.2,0,5.3,2.1,5.3,3.9c0,2.5-1.7,3.2-2.3,3.4v0.1c1.1,0.2,3,1,3,3.5c0,2.6-2.2,4.6-6.1,4.6c-1,0-2.9-0.2-5.1-1.2l0.3-2.8 c1.9,1,3.7,1.2,4.6,1.2c1.5,0,2.5-0.7,2.5-2c0-1-0.7-1.8-2.5-1.8h-1.8V78.2z"></path> <path class="st0" d="M200.9,72.4v5.7h5.7v-5.7h3.5v15h-3.5V81h-5.7v6.4h-3.5v-15H200.9z"></path> <path class="st0" d="M214.3,73.2c1.6-0.7,3.1-1,4.9-1c5.5,0,5.9,3.5,5.9,5.8v9.5h-3.5v-2.2h-0.1c-0.3,0.6-1.3,2.4-4.2,2.4 c-3.4,0-4.8-2.2-4.8-4.6c0-2.1,1-5,6.7-5c0.6,0,1.3,0,2,0h0.3v-0.6c0-1.7-1.4-2.6-3-2.6c-1.2,0-2.5,0.2-4.3,1.3V73.2z M221.1,80.6 c-1.9,0-4.8,0-4.8,2.4c0,1.1,0.6,1.9,2.2,1.9c1.5,0,3.2-0.8,3.2-4v-0.4H221.1z"></path> <path class="st0" d="M239.8,87.5h-3.5v-5.7h-1.6l-2.6,5.7h-4.2l3.4-6.1c-2.3-0.6-3.1-2.6-3.1-4.4c0-3,2.5-4.5,4.7-4.5h7V87.5z M233.9,75c-1.4,0-2.1,1-2.1,2.1c0,1.3,1,2.1,2.1,2.1h2.3V75H233.9z"></path> <path class="st0" d="M252.7,72.4v6.8h0.1l4.3-6.8h3.9l-5,7.1l5.7,7.9h-4.4l-4.5-7.2h-0.1v7.2h-3.5v-15H252.7z"></path> <path class="st0" d="M269,72.2c4,0,6.9,2.7,6.9,7.7s-2.9,7.7-6.9,7.7S262,85,262,80S265,72.2,269,72.2z M269,84.9 c1.6,0,3.2-1.4,3.2-4.9S270.5,75,269,75c-1.6,0-3.2,1.4-3.2,4.9S267.4,84.9,269,84.9z"></path> <path class="st0" d="M285.4,87.5l-2.6-8.8l-0.7-2.4h-0.1l0.1,2.7v8.6h-3.5v-15h4.9l2.8,8.6l0.8,2.7h0.2l0.8-2.7l2.8-8.6h4.9v15 h-3.5v-8.6l0.1-2.7h-0.1l-0.7,2.4l-2.6,8.8H285.4z"></path> <path class="st0" d="M311.5,72.4v15H308V75.3h-5.5v12.1H299v-15H311.5z"></path> <path class="st0" d="M315.7,73.2c1.6-0.7,3.1-1,4.9-1c5.5,0,5.9,3.5,5.9,5.8v9.5h-3.5v-2.2h-0.1c-0.3,0.6-1.3,2.4-4.2,2.4 c-3.4,0-4.8-2.2-4.8-4.6c0-2.1,1-5,6.7-5c0.6,0,1.3,0,2,0h0.3v-0.6c0-1.7-1.4-2.6-3-2.6c-1.2,0-2.5,0.2-4.3,1.3V73.2z M322.5,80.6 c-1.9,0-4.8,0-4.8,2.4c0,1.1,0.6,1.9,2.2,1.9c1.5,0,3.2-0.8,3.2-4v-0.4H322.5z"></path> <path class="st0" d="M333.5,72.4v5.7h5.7v-5.7h3.5v15h-3.5V81h-5.7v6.4H330v-15H333.5z"></path> <path class="st0" d="M349.6,72.4v7.9l-0.1,2.7h0.1l5.8-10.6h3.9v15h-3.5v-7.8l0.1-2.8h-0.1l-5.9,10.6h-3.8v-15H349.6z"></path> <path class="st0" d="M373.8,87.5h-3.5v-5.7h-1.6l-2.6,5.7h-4.2l3.4-6.1c-2.3-0.6-3.1-2.6-3.1-4.4c0-3,2.5-4.5,4.7-4.5h7V87.5z M368,75c-1.4,0-2.1,1-2.1,2.1c0,1.3,1,2.1,2.1,2.1h2.3V75H368z"></path> </g> </g> </svg> 