<?xml version="1.0" encoding="UTF-8"?> <!-- Generator: Adobe Illustrator 25.0.0, SVG Export Plug-In . SVG Version: 6.00 Build 0) --> <svg xmlns="http://www.w3.org/2000/svg" xmlns:xlink="http://www.w3.org/1999/xlink" id="Layer_1" x="0px" y="0px" viewBox="0 0 340.9 219.9" style="enable-background:new 0 0 340.9 219.9;" xml:space="preserve"> <style type="text/css"> .st0{fill:#53B5EC;} </style> <g> <path class="st0" d="M308,7.8H180.3l0.1,2.3c0,0.1,0,0.1,0,0.2c0,5.5-4.5,10-10,10c-5.5,0-10-4.5-10-10c0-0.1,0-0.1,0-0.2l0.1-2.3 H33c-17.6,0-32,14.4-32,32v172h307c17.6,0,32-14.4,32-32v-140C340,22.2,325.6,7.8,308,7.8z M336,179.8c0,15.4-12.6,28-28,28H5v-168 c0-15.4,12.6-28,28-28h123.6c0.8,7,6.7,12.5,13.9,12.5s13.2-5.5,13.9-12.5H308c15.4,0,28,12.6,28,28V179.8z"></path> <circle class="st0" cx="170.5" cy="9.8" r="7.5"></circle> </g> </svg> 